<svg width="146" height="51" viewBox="0 0 146 51" fill="none" xmlns="http://www.w3.org/2000/svg">
<g id="Frame 1">
<path id="scool" d="M12.144 47.384C10 47.384 7.904 47.128 5.856 46.616C3.808 46.072 2.176 45.4 0.96 44.6L3.456 39.224C4.608 39.96 6 40.568 7.632 41.048C9.264 41.496 10.864 41.72 12.432 41.72C15.6 41.72 17.184 40.936 17.184 39.368C17.184 38.632 16.752 38.104 15.888 37.784C15.024 37.464 13.696 37.192 11.904 36.968C9.792 36.648 8.048 36.28 6.672 35.864C5.296 35.448 4.096 34.712 3.072 33.656C2.08 32.6 1.584 31.096 1.584 29.144C1.584 27.512 2.048 26.072 2.976 24.824C3.936 23.544 5.312 22.552 7.104 21.848C8.928 21.144 11.072 20.792 13.536 20.792C15.36 20.792 17.168 21 18.96 21.416C20.784 21.8 22.288 22.344 23.472 23.048L20.976 28.376C18.704 27.096 16.224 26.456 13.536 26.456C11.936 26.456 10.736 26.68 9.936 27.128C9.136 27.576 8.736 28.152 8.736 28.856C8.736 29.656 9.168 30.216 10.032 30.536C10.896 30.856 12.272 31.16 14.16 31.448C16.272 31.8 18 32.184 19.344 32.6C20.688 32.984 21.856 33.704 22.848 34.76C23.84 35.816 24.336 37.288 24.336 39.176C24.336 40.776 23.856 42.2 22.896 43.448C21.936 44.696 20.528 45.672 18.672 46.376C16.848 47.048 14.672 47.384 12.144 47.384ZM41.436 47.384C38.684 47.384 36.204 46.824 33.996 45.704C31.82 44.552 30.108 42.968 28.86 40.952C27.644 38.936 27.036 36.648 27.036 34.088C27.036 31.528 27.644 29.24 28.86 27.224C30.108 25.208 31.82 23.64 33.996 22.52C36.204 21.368 38.684 20.792 41.436 20.792C44.156 20.792 46.524 21.368 48.54 22.52C50.588 23.64 52.076 25.256 53.004 27.368L47.196 30.488C45.852 28.12 43.916 26.936 41.388 26.936C39.436 26.936 37.82 27.576 36.54 28.856C35.26 30.136 34.62 31.88 34.62 34.088C34.62 36.296 35.26 38.04 36.54 39.32C37.82 40.6 39.436 41.24 41.388 41.24C43.948 41.24 45.884 40.056 47.196 37.688L53.004 40.856C52.076 42.904 50.588 44.504 48.54 45.656C46.524 46.808 44.156 47.384 41.436 47.384ZM69.2753 47.384C66.5553 47.384 64.1073 46.824 61.9313 45.704C59.7873 44.552 58.1073 42.968 56.8913 40.952C55.6753 38.936 55.0673 36.648 55.0673 34.088C55.0673 31.528 55.6753 29.24 56.8913 27.224C58.1073 25.208 59.7873 23.64 61.9313 22.52C64.1073 21.368 66.5553 20.792 69.2753 20.792C71.9953 20.792 74.4273 21.368 76.5713 22.52C78.7153 23.64 80.3953 25.208 81.6113 27.224C82.8273 29.24 83.4353 31.528 83.4353 34.088C83.4353 36.648 82.8273 38.936 81.6113 40.952C80.3953 42.968 78.7153 44.552 76.5713 45.704C74.4273 46.824 71.9953 47.384 69.2753 47.384ZM69.2753 41.24C71.1953 41.24 72.7633 40.6 73.9793 39.32C75.2273 38.008 75.8513 36.264 75.8513 34.088C75.8513 31.912 75.2273 30.184 73.9793 28.904C72.7633 27.592 71.1953 26.936 69.2753 26.936C67.3553 26.936 65.7713 27.592 64.5233 28.904C63.2753 30.184 62.6513 31.912 62.6513 34.088C62.6513 36.264 63.2753 38.008 64.5233 39.32C65.7713 40.6 67.3553 41.24 69.2753 41.24ZM100.728 47.384C98.0084 47.384 95.5604 46.824 93.3844 45.704C91.2404 44.552 89.5604 42.968 88.3444 40.952C87.1284 38.936 86.5204 36.648 86.5204 34.088C86.5204 31.528 87.1284 29.24 88.3444 27.224C89.5604 25.208 91.2404 23.64 93.3844 22.52C95.5604 21.368 98.0084 20.792 100.728 20.792C103.448 20.792 105.88 21.368 108.024 22.52C110.168 23.64 111.848 25.208 113.064 27.224C114.28 29.24 114.888 31.528 114.888 34.088C114.888 36.648 114.28 38.936 113.064 40.952C111.848 42.968 110.168 44.552 108.024 45.704C105.88 46.824 103.448 47.384 100.728 47.384ZM100.728 41.24C102.648 41.24 104.216 40.6 105.432 39.32C106.68 38.008 107.304 36.264 107.304 34.088C107.304 31.912 106.68 30.184 105.432 28.904C104.216 27.592 102.648 26.936 100.728 26.936C98.8084 26.936 97.2244 27.592 95.9764 28.904C94.7284 30.184 94.1044 31.912 94.1044 34.088C94.1044 36.264 94.7284 38.008 95.9764 39.32C97.2244 40.6 98.8084 41.24 100.728 41.24ZM119.894 11.384H127.382V47H119.894V11.384Z" fill="black"/>
<path id="." d="M136.288 47.384C134.976 47.384 133.872 46.936 132.976 46.04C132.08 45.144 131.632 44.024 131.632 42.68C131.632 41.304 132.08 40.2 132.976 39.368C133.872 38.504 134.976 38.072 136.288 38.072C137.6 38.072 138.704 38.504 139.6 39.368C140.496 40.2 140.944 41.304 140.944 42.68C140.944 44.024 140.496 45.144 139.6 46.04C138.704 46.936 137.6 47.384 136.288 47.384Z" fill="#F22431"/>
</g>
</svg>
